<svg xmlns="http://www.w3.org/2000/svg" width="16" height="17" viewBox="0 0 16 17">
    <path fill="#C6C6C7" fill-rule="evenodd" d="M2.522 6.512c.014 2.134 1.673 3.98 3.958 3.961 2.249-.018 3.917-1.762 3.912-3.974a3.917 3.917 0 0 0-4.076-3.96c-2.162.079-3.79 1.86-3.794 3.973M16 14.353l-1.8 1.817c-.272-.292-.546-.604-.836-.899-1.043-1.06-2.094-2.113-3.135-3.176-.143-.146-.248-.142-.415-.043-3.17 1.888-7.008.919-8.915-2.245C-1.311 6.14.757 1.169 4.903.185c3.485-.827 6.861 1.184 7.794 4.674.468 1.751.21 3.424-.711 4.982-.129.218-.12.336.061.515 1.265 1.257 2.517 2.526 3.772 3.792.063.064.12.136.181.205"/>
</svg>
