<svg xmlns="http://www.w3.org/2000/svg" width="25" height="21" viewBox="0 0 25 21">
    <g fill="#9B9B9B" fill-rule="evenodd">
        <path d="M8.62 11.81s-1.037 0-1.12.002a.819.819 0 0 0-.526.242l-2.873 2.944c0-1.032-.002-2.353-.004-2.43a.82.82 0 0 0-.817-.758l-1.64.006-.012-10.151 16.522-.007v3.897c0 .458.37.831.82.831.454 0 .822-.373.822-.831V0H0v13.474h2.46v3.544c0 .339.202.64.511.77a.811.811 0 0 0 .893-.185l4.034-4.129h.723c.452 0 .82-.373.82-.833a.828.828 0 0 0-.82-.831"/>
        <path d="M21.63 16.87c0 .038 0 .634-.002 1.232l-1.71-1.81a.78.78 0 0 0-.538-.216l-7.35.005V9.04l11.356-.006.013 7.04h-.964c-.427 0-.773.339-.804.794zm1.77-9.52H10.416v10.417h8.627l2.816 2.982a.778.778 0 0 0 .883.188.847.847 0 0 0 .498-.783v-2.387H25V7.35h-1.6zM15.829 4.2H5.006c-.462 0-.84.336-.84.75s.378.75.84.75h10.823c.462 0 .838-.336.838-.75s-.376-.75-.838-.75M8.62 7.35H4.923a.754.754 0 0 0-.755.75c0 .414.34.75.755.75h3.699a.753.753 0 0 0 .754-.75.753.753 0 0 0-.754-.75"/>
        <path d="M17.708 11.55c-.574 0-1.041.47-1.041 1.05 0 .58.467 1.05 1.041 1.05.575 0 1.042-.47 1.042-1.05 0-.58-.467-1.05-1.042-1.05M14.625 11.55c-.573 0-1.042.47-1.042 1.05 0 .58.47 1.05 1.042 1.05.573 0 1.042-.47 1.042-1.05 0-.58-.47-1.05-1.042-1.05M20.834 11.55c-.574 0-1.042.47-1.042 1.05 0 .58.468 1.05 1.042 1.05.573 0 1.041-.47 1.041-1.05 0-.58-.468-1.05-1.04-1.05"/>
    </g>
</svg>
