<svg xmlns="http://www.w3.org/2000/svg" width="59" height="48" viewBox="0 0 59 48">
    <g fill="#FFF" fill-rule="evenodd">
        <path d="M52.572 31.867a35.616 35.616 0 0 0-2.453 1.885l-.018.015a34.44 34.44 0 0 0-2.215 2.034l-.043.043a33.145 33.145 0 0 0-1.601 1.73l-.012.013c-.117.136-.232.272-.346.409l-.068.082a33.367 33.367 0 0 0-.378.466c-.21.263-.415.53-.615.798a53.57 53.57 0 0 0-1.744-1.261l.036-.038.124-.128a31.94 31.94 0 0 1 1.135-1.125c.036-.034.07-.068.107-.101.108-.101.218-.201.328-.3l.163-.149c.106-.095.213-.188.32-.282l.18-.157a34.55 34.55 0 0 1 1.91-1.52c.06-.045.122-.089.183-.133.122-.09.245-.179.369-.266l.157-.11c.134-.094.27-.188.406-.28l.057-.038a34.449 34.449 0 0 1 1.54-.98l.09-.054c.143-.085.287-.168.432-.252l.169-.097c.137-.078.274-.154.413-.23l.197-.109.407-.217.212-.11c.136-.07.272-.14.409-.208l.217-.108a40.6 40.6 0 0 1 1.059-.499l.204-.09c.15-.067.299-.133.45-.197l.168-.071c.164-.07.328-.139.494-.206h.002c.024.016.05.03.074.047.038.024.077.048.114.073l.03.02a36.45 36.45 0 0 0-2.663 1.701zm-11.01 11.584c-4.796-4.695-10.597-8.533-17.087-11.262 1.214.306 2.424.652 3.627 1.043 6.238 2.029 11.826 5.059 16.58 8.78a27.791 27.791 0 0 1-3.12 1.44zm-6.537 1.75c-4.89-5.491-11.069-9.987-18.108-13.164a56.38 56.38 0 0 1 2.268.683c7.598 2.471 14.386 6.456 19.883 11.575a32.93 32.93 0 0 1-4.043.905zm-5.82.45a35.845 35.845 0 0 1-2.314-.107c-4.758-5.785-10.9-10.563-17.968-13.988.446.133.891.27 1.336.414 8.736 2.841 16.2 7.642 21.872 13.565a38.22 38.22 0 0 1-2.925.116zm-11.408-2.215c-3.393-4.159-7.5-7.801-12.152-10.801 6.885 2.956 12.941 7.211 17.75 12.441a29.375 29.375 0 0 1-5.598-1.64zm2.17-19.257h2.777v-2.82h-2.777v2.82zm7.02-5.012l4.86-5.916 4.088 5.916v5.639c-5.198 1.783-8.948 4.699-8.948 4.699V19.167zm10.545 9.31a37.487 37.487 0 0 1 3.527-1.117l.039-.01.271-.068c-.356.152-.708.31-1.057.471l-.157.073c-.31.144-.615.294-.92.446l-.227.116c-.3.152-.597.306-.89.466l-.149.081c-.329.18-.655.365-.977.555l-.086.052c-.138.082-.272.167-.409.25-.164.101-.33.2-.493.303l-.118.074c-.31.199-.617.401-.92.608l-.14.097c-.29.2-.577.404-.86.611l-.055.04c-.294.216-.583.438-.87.663l-.16.127c-.057.045-.113.093-.17.139a56.927 56.927 0 0 0-1.772-.699 34.586 34.586 0 0 1 3.114-1.763c.326-.163.658-.318.99-.472a34.6 34.6 0 0 1 1.52-.666c.32-.13.643-.254.969-.376zm9.672-.723c.102-.028.205-.05.308-.077h-.001l-.118.053a38.064 38.064 0 0 0-3.144 1.523l-.138.075c-.333.182-.662.369-.987.561l-.067.04c-.17.1-.336.206-.504.309-.138.085-.279.168-.416.255l-.113.071c-.313.2-.621.403-.926.612l-.066.045-.065.045c-.292.201-.58.406-.866.614l-.056.041c-.295.217-.585.439-.871.665-.053.04-.105.082-.158.124a34.78 34.78 0 0 0-1.722 1.463l-.097.088c-.065.059-.126.12-.19.18a56.068 56.068 0 0 0-1.866-.92 33.866 33.866 0 0 1 1.285-.911c.495-.333 1.004-.65 1.519-.959.319-.19.638-.382.965-.564a36.286 36.286 0 0 1 8.294-3.334zm5.07.7c.074.037.148.072.221.11-.22.1-.438.204-.654.31-.101.048-.201.098-.3.148-.126.062-.252.124-.376.187l-.317.164c-.116.061-.233.122-.348.184l-.32.173a47.156 47.156 0 0 0-.652.366l-.335.195c-.102.06-.205.12-.306.182-.114.068-.227.138-.34.208-.097.06-.194.119-.29.18-.126.078-.25.16-.376.24l-.266.172c-.188.125-.376.25-.56.377-.088.06-.174.121-.26.182l-.338.237-.276.201c-.104.076-.208.152-.311.23l-.278.21-.3.23-.271.215c-.1.079-.2.159-.298.239l-.262.215c-.102.084-.202.17-.302.254l-.245.209-.342.3-.217.193c-.162.146-.322.294-.481.443-.072.067-.142.136-.214.204a23.651 23.651 0 0 0-.526.514 22.43 22.43 0 0 0-.5.507 37.164 37.164 0 0 0-.483.513l-.035.039c-.636-.4-1.283-.79-1.94-1.166.234-.207.473-.41.714-.61l.099-.082c.323-.267.652-.528.987-.783l.08-.061c.345-.26.693-.515 1.049-.762l.05-.035c.368-.256.741-.505 1.12-.746l.002-.001a35.672 35.672 0 0 1 8.997-4.085zm5.709-.982c.385.203.776.418 1.017.576-2.183 6.583-6.115 11.685-11.704 15.16C42.253 46.343 35.993 48 29.19 48c-11.385-.158-18.797-5.363-23.013-9.701C2.625 34.645.712 31.035 0 29.52c.586-.147 1.738-.36 2.357-.47l.003.005c.318-.059.637-.116.958-.17l.033-.004v-.669a1.557 1.557 0 0 1-.892-1.412c0-.86.686-4.263 1.533-4.263.847 0 1.533 3.403 1.533 4.263 0 .688-.44 1.272-1.052 1.477v.48l3.078-.34v-.61a1.943 1.943 0 0 1-1.31-1.844c0-1.074.859-5.329 1.917-5.329s1.916 4.255 1.916 5.33a1.94 1.94 0 0 1-1.4 1.871v.458h.004c1.533-.088 7.431.161 7.431.161V20.42h-1.08l5.825-7.034V10.71h-.5V8.907h3.43v1.802h-.577v5.638h.617V11.57h8.717l5.786 8.85.385.548h-1.697v2.071c.79.002 1.24.021 1.24.021s3.373.046 5.02.2c.242.035.482.075.722.114.068 0 .136-.003.205-.003l.132.002.373.046.06.012v-.313c-.583-.22-1-.789-1-1.457 0-.86.687-4.264 1.534-4.264.846 0 1.533 3.404 1.533 4.264 0 .668-.416 1.237-1 1.457v.513l2.867.538v-.538a1.941 1.941 0 0 1-1.382-1.867c0-1.075.857-5.329 1.916-5.329 1.058 0 1.916 4.254 1.916 5.329 0 .886-.584 1.632-1.382 1.867v.739l.104.02a36.93 36.93 0 0 1 7.055 2.548v-.001l.042.02.225.112c.2.1.456.23.72.368l.068.034v.001zM21.836 7.918s-.02-.035-.05-.1c-.028-.064-.078-.153-.106-.296A1.608 1.608 0 0 1 21.646 7c.02-.204.09-.437.166-.646.078-.21.14-.39.152-.537a1.73 1.73 0 0 0-.024-.443l-.01-.062-.005-.031v.038-.003l-.001-.005-.002-.012-.004-.024-.029-.188a.343.343 0 0 1-.033-.064.843.843 0 0 1-.037-.088 3.151 3.151 0 0 0-.278-.421c-.157-.217-.39-.574-.493-.974a2.56 2.56 0 0 1-.042-1.086l.019-.098.032-.146a1.37 1.37 0 0 1 .081-.27c.062-.163.14-.322.234-.454a2.39 2.39 0 0 1 .541-.557c.157-.118.278-.203.387-.299a2.37 2.37 0 0 0 .421-.536l.06-.094s.02.033.049.099c.029.065.079.163.107.3.037.135.052.31.035.519-.02.205-.089.437-.165.647-.078.21-.14.39-.152.537-.007.076-.01.14-.003.214 0 .038.01.065.013.09l.005.038.01.09.009.095.004.048v.003c.002-.08.001-.021.002-.039v.004l.002.008.004.015.025.122c.014.035.025.07.036.104l.037.089c.053.107.12.205.275.421.157.216.388.574.492.974.022.098.043.195.06.294.01.109.018.217.023.323l-.01.197-.002.024v.012l-.001.006v.048l-.01.064-.019.127c-.05.336-.18.688-.364.957-.185.27-.389.439-.541.557-.158.119-.279.204-.388.3-.102.093-.195.2-.261.291a1.76 1.76 0 0 0-.159.246c-.035.061-.058.094-.058.094z"/>
        <path d="M30 23h3v-3h-3z"/>
    </g>
</svg>
