<svg xmlns="http://www.w3.org/2000/svg" width="21" height="26" viewBox="0 0 21 26">
    <g fill="none" fill-rule="evenodd" stroke="#9B9B9B" stroke-width="2">
        <path d="M11.5 1.989c-.009-.52-.502-1-1.005-.989-.524.012-1.004.505-.995 1.012.01.517.506.999 1.009.988.535-.012 1-.49.99-1.011zM7 21.049c.034 1.87 1.7 3.54 3.553 3.499C12.45 24.506 14.03 22.878 14 21c-2.122 0-4.366.049-6.999.049z"/>
        <path d="M2.917 21c-1.701 0-1.615.012-1.776-.482-.362-1.115-.013-2.503.9-3.175 1-.735 1.474-1.77 1.715-2.96.144-.718.234-1.45.337-2.176.161-1.132.354-2.259.703-3.343.628-1.952 1.907-3.221 3.769-3.847.05-.017.978-.214 1.935-.214.957 0 2.07.257 2.215.313 1.955.754 3.141 2.23 3.664 4.325.316 1.267.52 2.554.662 3.855.093.854.32 1.679.638 2.472.251.626.685 1.088 1.198 1.487.936.73 1.33 1.976 1.017 3.162-.152.576-.272.583-.834.583H2.917z"/>
    </g>
</svg>
